<svg xmlns="http://www.w3.org/2000/svg" viewBox="0 0 1600 1000" role="img" aria-label="A quiet classroom with empty floor space, windows, desks, and a whiteboard">
  <defs>
    <linearGradient id="wall" x1="0" x2="1" y1="0" y2="1">
      <stop offset="0" stop-color="#f6fbff"/>
      <stop offset="0.55" stop-color="#eef7f3"/>
      <stop offset="1" stop-color="#f9f4e8"/>
    </linearGradient>
    <linearGradient id="floor" x1="0" x2="0" y1="0" y2="1">
      <stop offset="0" stop-color="#edf5f1" stop-opacity="0.65"/>
      <stop offset="1" stop-color="#e6dccb" stop-opacity="0.6"/>
    </linearGradient>
    <filter id="soften" x="-20%" y="-20%" width="140%" height="140%">
      <feGaussianBlur stdDeviation="1.3"/>
    </filter>
  </defs>

  <rect width="1600" height="1000" fill="url(#wall)"/>
  <rect y="610" width="1600" height="390" fill="url(#floor)" opacity="0.48"/>

  <g opacity="0.16" filter="url(#soften)">
    <path d="M0 610h1600" stroke="#506070" stroke-width="3"/>
    <path d="M440 610 210 1000M700 610 610 1000M900 610l88 390M1160 610l232 390" stroke="#82909c" stroke-width="2"/>
  </g>

  <g opacity="0.2" fill="none" stroke="#506070" stroke-width="3">
    <rect x="590" y="160" width="420" height="230" rx="10"/>
    <path d="M635 212h330M635 265h260M635 318h300"/>
  </g>

  <g opacity="0.14" fill="#cfe9f4" stroke="#506070" stroke-width="3">
    <rect x="96" y="128" width="220" height="258" rx="12"/>
    <path d="M206 128v258M96 257h220"/>
    <rect x="1284" y="128" width="220" height="258" rx="12"/>
    <path d="M1394 128v258M1284 257h220"/>
  </g>

  <g opacity="0.15" fill="none" stroke="#64748b" stroke-linecap="round" stroke-linejoin="round">
    <g stroke-width="6">
      <path d="M104 760h260l-36 62H140z"/>
      <path d="M148 824v76M322 824v76M172 900h124"/>
      <path d="M1236 752h264l-38 64h-188z"/>
      <path d="M1282 818v82M1460 818v82M1308 900h126"/>
      <path d="M502 814h214l-30 54H532z"/>
      <path d="M540 870v54M680 870v54M560 924h96"/>
    </g>
    <g stroke-width="5" opacity="0.78">
      <path d="M210 820c-34 18-48 43-42 74M286 822c30 20 42 45 34 74"/>
      <path d="M1360 816c-34 20-47 46-40 82M1434 816c30 22 42 49 34 82"/>
      <path d="M590 866c-24 16-34 36-28 62M642 866c23 17 32 38 27 62"/>
    </g>
  </g>

  <g opacity="0.12" fill="none" stroke="#0f766e" stroke-width="5" stroke-linecap="round">
    <path d="M410 478h110"/>
    <path d="M1080 478h110"/>
    <path d="M760 486h80"/>
  </g>

  <g opacity="0.1" fill="#0f766e">
    <circle cx="254" cy="474" r="12"/>
    <circle cx="1346" cy="474" r="12"/>
    <circle cx="802" cy="452" r="10"/>
  </g>
</svg>
