<svg xmlns="http://www.w3.org/2000/svg" viewBox="0 0 1600 1000" preserveAspectRatio="xMidYMid slice">
  <defs>
    <radialGradient id="glow" cx="50%" cy="10%" r="48%">
      <stop offset="0" stop-color="#b9f5ff" stop-opacity=".95"/>
      <stop offset=".22" stop-color="#38bdf8" stop-opacity=".55"/>
      <stop offset=".5" stop-color="#164e80" stop-opacity=".2"/>
      <stop offset="1" stop-color="#020617" stop-opacity="0"/>
    </radialGradient>
    <linearGradient id="water" x1="0" x2="0" y1="0" y2="1">
      <stop offset="0" stop-color="#071b38"/>
      <stop offset=".5" stop-color="#031023"/>
      <stop offset="1" stop-color="#01040b"/>
    </linearGradient>
    <filter id="blur">
      <feGaussianBlur stdDeviation="18"/>
    </filter>
  </defs>
  <rect width="1600" height="1000" fill="url(#water)"/>
  <rect width="1600" height="1000" fill="url(#glow)"/>
  <g opacity=".34" filter="url(#blur)">
    <path d="M622 0c-64 120-81 220-51 300 35 94 121 136 100 232-15 69-75 95-70 171 5 78 75 134 121 165" fill="none" stroke="#7dd3fc" stroke-width="44"/>
    <path d="M822 0c16 132-11 245-82 338-66 86-149 120-161 222-11 94 48 167 108 235" fill="none" stroke="#c4b5fd" stroke-width="24"/>
    <path d="M1023 0c-58 119-71 221-38 305 42 107 150 157 122 267-20 80-99 115-114 229" fill="none" stroke="#38bdf8" stroke-width="32"/>
  </g>
  <g opacity=".72">
    <ellipse cx="1002" cy="371" rx="128" ry="54" fill="#e0f2fe" opacity=".84"/>
    <path d="M878 375c53 56 94 113 107 185m-35-185c31 76 48 142 50 198m44-196c-11 84-9 148 8 192m43-187c18 48 43 94 75 136" fill="none" stroke="#bae6fd" stroke-width="9" stroke-linecap="round" opacity=".72"/>
    <ellipse cx="993" cy="365" rx="68" ry="24" fill="#67e8f9" opacity=".24"/>
  </g>
  <g opacity=".82">
    <path d="M0 836c146-52 262-60 348-24 66 28 115 34 185 9 96-35 164-33 238 7 65 36 132 39 201 8 114-51 217-46 309 14 70 46 176 49 319 8v142H0z" fill="#03101f"/>
    <circle cx="145" cy="812" r="12" fill="#22d3ee"/>
    <circle cx="217" cy="776" r="6" fill="#a78bfa"/>
    <circle cx="1308" cy="823" r="9" fill="#67e8f9"/>
    <circle cx="1191" cy="775" r="5" fill="#c4b5fd"/>
    <path d="M505 862c24-83 65-129 123-139m-55 145c33-59 81-95 144-109m452 107c-27-71-72-114-136-131m75 134c-43-50-96-75-158-75" fill="none" stroke="#0e7490" stroke-width="12" stroke-linecap="round" opacity=".42"/>
  </g>
  <g opacity=".26">
    <circle cx="520" cy="184" r="4" fill="#e0f2fe"/>
    <circle cx="583" cy="250" r="3" fill="#e0f2fe"/>
    <circle cx="723" cy="112" r="4" fill="#e0f2fe"/>
    <circle cx="893" cy="220" r="3" fill="#e0f2fe"/>
    <circle cx="1060" cy="141" r="4" fill="#e0f2fe"/>
    <circle cx="1188" cy="286" r="3" fill="#e0f2fe"/>
  </g>
</svg>
