<svg xmlns="http://www.w3.org/2000/svg" viewBox="0 0 760 160" role="img" aria-label="ClassLoop wordmark">
  <text x="18" y="103" fill="#0f172a" font-family="Inter, ui-sans-serif, system-ui, -apple-system, BlinkMacSystemFont, 'Segoe UI', sans-serif" font-size="96" font-weight="850" letter-spacing="0">ClassLoop</text>
  <path d="M559 115c49 0 78-26 78-65 0-26-17-45-43-45-25 0-39 14-54 45-15 31-27 45-51 45-20 0-35-14-35-34 0-22 17-37 41-37 16 0 29 6 42 20" fill="none" stroke="#10b981" stroke-width="10" stroke-linecap="round"/>
  <path d="M649 70c11 16 28 25 50 25 25 0 42-16 42-38 0-20-15-34-35-34-23 0-36 14-51 45-15 31-29 46-54 46-16 0-30-6-42-19" fill="none" stroke="#37d6c7" stroke-width="10" stroke-linecap="round"/>
</svg>
